<svg width="62" height="48" viewBox="0 0 62 48" fill="none" xmlns="http://www.w3.org/2000/svg">
<rect width="24" height="24" transform="translate(19 12)" fill="#8F80D8"/>
<path d="M31 15L23 22V32C23 32.2652 23.1204 32.5196 23.3347 32.7071C23.5491 32.8946 23.8398 33 24.1429 33H27.5714C27.8745 33 28.1652 32.8946 28.3795 32.7071C28.5939 32.5196 28.7143 32.2652 28.7143 32V28C28.7143 27.7348 28.8347 27.4804 29.049 27.2929C29.2633 27.1054 29.554 27 29.8571 27H32.1429C32.446 27 32.7367 27.1054 32.951 27.2929C33.1653 27.4804 33.2857 27.7348 33.2857 28V32C33.2857 32.2652 33.4061 32.5196 33.6204 32.7071C33.8348 32.8946 34.1255 33 34.4286 33H37.8571C38.1602 33 38.4509 32.8946 38.6653 32.7071C38.8796 32.5196 39 32.2652 39 32V22L31 15Z" fill="white"/>
</svg>
