<svg width="37" height="37" viewBox="0 0 37 37" fill="none" xmlns="http://www.w3.org/2000/svg">
<path d="M26.2021 13.8951H26.2144M26.2144 10.8056V6.94525M11.5655 33.9167H7.27347C6.77551 33.9167 6.27447 33.8458 5.8166 33.65C4.32735 33.0102 3.57039 32.1638 3.21889 31.635C3.12349 31.4886 3.07662 31.3158 3.08492 31.1412C3.09323 30.9666 3.15628 30.799 3.26514 30.6623C4.9918 28.3683 8.99397 26.9838 11.5655 26.9838M11.5732 33.9167H15.8636C16.3631 33.9167 16.8626 33.8458 17.3205 33.65C18.8113 33.0102 19.5667 32.1638 19.9198 31.635C20.0152 31.4886 20.062 31.3158 20.0537 31.1412C20.0454 30.9666 19.9824 30.799 19.8735 30.6623C18.1468 28.3683 14.1447 26.9838 11.5732 26.9838M33.9166 10.471C33.9166 14.5503 30.4632 17.8587 26.2021 17.8587C25.7005 17.8587 25.2031 17.8125 24.7097 17.72C24.3551 17.6537 24.1794 17.6213 24.0545 17.6398C23.9312 17.6583 23.7554 17.7508 23.407 17.9389C22.409 18.4709 21.2604 18.6497 20.1479 18.4461C20.5703 17.925 20.8571 17.3006 20.9851 16.6315C21.0621 16.223 20.871 15.8253 20.5842 15.5339C19.2453 14.1886 18.4918 12.369 18.4876 10.471C18.4876 6.39179 21.9409 3.08337 26.2021 3.08337C30.4632 3.08337 33.9166 6.39179 33.9166 10.471ZM15.8559 18.9456C15.8543 20.0801 15.4023 21.1675 14.5992 21.9689C13.7961 22.7702 12.7077 23.2199 11.5732 23.2191C11.0112 23.2199 10.4545 23.11 9.93495 22.8957C9.41541 22.6813 8.94317 22.3668 8.54519 21.97C8.14721 21.5731 7.8313 21.1018 7.61547 20.5829C7.39965 20.0639 7.28816 19.5076 7.28735 18.9456C7.28795 18.3834 7.3993 17.8269 7.61503 17.3078C7.83076 16.7887 8.14665 16.3172 8.54465 15.9202C8.94264 15.5232 9.41495 15.2085 9.9346 14.9941C10.4542 14.7797 11.011 14.6697 11.5732 14.6705C12.708 14.6697 13.7966 15.1196 14.5997 15.9213C15.4028 16.723 15.8547 17.8108 15.8559 18.9456Z" stroke="#F24822" stroke-width="1.5" stroke-linecap="round" stroke-linejoin="round"/>
</svg>
