<svg width="144" height="32" viewBox="0 0 144 32" fill="none" xmlns="http://www.w3.org/2000/svg">
<path d="M17.9656 31L17.3056 23.168C17.1883 21.8773 16.9683 20.7627 16.6456 19.824C16.3523 18.8853 15.8243 18.1667 15.0616 17.668C14.3283 17.1693 13.2283 16.9493 11.7616 17.008H4.23761V15.292H11.2776C13.2429 15.292 14.6509 14.7787 15.5016 13.752C16.3816 12.696 16.8216 10.9947 16.8216 8.648C16.8216 6.30133 16.3083 4.556 15.2816 3.412C14.2843 2.23866 12.5683 1.652 10.1336 1.652H4.23761V0.199998H11.1016C12.3923 0.258666 13.6096 0.537332 14.7536 1.036C15.8976 1.50533 16.8216 2.34133 17.5256 3.544C18.2589 4.74667 18.6256 6.492 18.6256 8.78C18.6256 10.892 18.3469 12.5347 17.7896 13.708C17.2323 14.852 16.4989 15.6733 15.5896 16.172C16.4109 16.524 17.1443 17.1107 17.7896 17.932C18.4643 18.724 18.8603 19.8973 18.9776 21.452L19.7256 31H17.9656ZM0.497613 31V0.199998H2.25761V31H0.497613ZM31.3403 31.22C30.695 31.22 29.8737 31.0587 28.8763 30.736C27.879 30.4133 26.8963 29.9147 25.9283 29.24C24.9603 28.5653 24.139 27.6707 23.4643 26.556C22.819 25.4413 22.4963 24.092 22.4963 22.508V0.199998H24.2563V22.508C24.2563 23.7107 24.535 24.7667 25.0923 25.676C25.6497 26.556 26.3243 27.2893 27.1163 27.876C27.9377 28.4333 28.7297 28.8587 29.4923 29.152C30.2843 29.416 30.9003 29.548 31.3403 29.548V31.22ZM33.3643 31.22V29.548C33.8337 29.548 34.4497 29.416 35.2123 29.152C36.0043 28.888 36.7963 28.4773 37.5883 27.92C38.3803 27.3627 39.0403 26.644 39.5683 25.764C40.1257 24.8547 40.4043 23.7693 40.4043 22.508V0.199998H42.1643V22.508C42.1643 24.092 41.8417 25.4413 41.1963 26.556C40.551 27.6707 39.7443 28.58 38.7763 29.284C37.8083 29.9587 36.8257 30.4573 35.8283 30.78C34.8603 31.0733 34.039 31.22 33.3643 31.22ZM58.1595 31V14.632C58.1595 13.3413 57.7341 12.2267 56.8835 11.288C56.0621 10.32 54.9475 9.836 53.5395 9.836V8.164C55.1235 8.164 56.2968 8.45733 57.0595 9.044C57.8515 9.60133 58.5115 10.32 59.0395 11.2C59.5675 10.32 60.2128 9.60133 60.9755 9.044C61.7381 8.45733 62.9115 8.164 64.4955 8.164V9.836C63.0875 9.836 61.9728 10.32 61.1515 11.288C60.3301 12.2267 59.9195 13.3413 59.9195 14.632V31H58.1595ZM45.3115 31V14.412C45.3115 13.8253 45.3995 13.18 45.5755 12.476C45.7808 11.772 46.1181 11.0973 46.5875 10.452C47.0568 9.77733 47.7021 9.23467 48.5235 8.824C49.3448 8.384 50.3715 8.164 51.6035 8.164V9.836C50.1955 9.836 49.0808 10.32 48.2595 11.288C47.4675 12.2267 47.0715 13.3413 47.0715 14.632V31H45.3115ZM71.0075 31V14.632C71.0075 13.2827 70.5821 12.1533 69.7315 11.244C68.9101 10.3053 67.8101 9.836 66.4315 9.836V8.164C67.6341 8.164 68.6461 8.384 69.4675 8.824C70.2888 9.264 70.9341 9.82133 71.4035 10.496C71.9021 11.1413 72.2541 11.8307 72.4595 12.564C72.6648 13.268 72.7675 13.884 72.7675 14.412V31H71.0075ZM114.463 31V1.872H105.839V0.199998H124.891V1.872H116.223V31H114.463ZM134.432 31C133.259 31 132.217 30.78 131.308 30.34C130.428 29.9 129.68 29.3573 129.064 28.712C128.448 28.0373 127.979 27.348 127.656 26.644C127.363 25.94 127.216 25.324 127.216 24.796V14.412C127.216 13.884 127.363 13.2827 127.656 12.608C127.979 11.904 128.433 11.2293 129.02 10.584C129.636 9.90933 130.384 9.36667 131.264 8.956C132.173 8.516 133.215 8.296 134.388 8.296V9.968C133.332 9.968 132.393 10.2467 131.572 10.804C130.78 11.332 130.149 11.9773 129.68 12.74C129.211 13.4733 128.976 14.148 128.976 14.764V18.46H141.78V14.764C141.78 13.884 141.516 13.0773 140.988 12.344C140.46 11.6107 139.785 11.024 138.964 10.584C138.143 10.1147 137.277 9.88 136.368 9.88V8.296C137.483 8.296 138.583 8.57467 139.668 9.132C140.783 9.68933 141.707 10.4227 142.44 11.332C143.173 12.2413 143.54 13.2533 143.54 14.368V20.132H128.976V24.796C128.976 25.324 129.225 25.94 129.724 26.644C130.223 27.348 130.883 27.9787 131.704 28.536C132.555 29.064 133.464 29.328 134.432 29.328V31ZM136.368 31V29.196C137.424 29.196 138.333 28.9613 139.096 28.492C139.859 28.0227 140.475 27.48 140.944 26.864C141.443 26.2187 141.751 25.632 141.868 25.104L143.584 25.72C143.32 26.6587 142.865 27.5387 142.22 28.36C141.575 29.152 140.753 29.7973 139.756 30.296C138.788 30.7653 137.659 31 136.368 31Z" fill="#ED4D00"/>
</svg>
