<svg width="25" height="25" viewBox="0 0 25 25" fill="none" xmlns="http://www.w3.org/2000/svg">
<path d="M12.3333 4.16663C13.4384 4.16663 14.4982 4.60561 15.2796 5.38701C16.061 6.16842 16.5 7.22822 16.5 8.33329C16.5 9.43836 16.061 10.4982 15.2796 11.2796C14.4982 12.061 13.4384 12.5 12.3333 12.5C11.2283 12.5 10.1685 12.061 9.38705 11.2796C8.60565 10.4982 8.16667 9.43836 8.16667 8.33329C8.16667 7.22822 8.60565 6.16842 9.38705 5.38701C10.1685 4.60561 11.2283 4.16663 12.3333 4.16663ZM12.3333 6.24996C11.7808 6.24996 11.2509 6.46945 10.8602 6.86015C10.4695 7.25085 10.25 7.78076 10.25 8.33329C10.25 8.88583 10.4695 9.41573 10.8602 9.80643C11.2509 10.1971 11.7808 10.4166 12.3333 10.4166C12.8859 10.4166 13.4158 10.1971 13.8065 9.80643C14.1972 9.41573 14.4167 8.88583 14.4167 8.33329C14.4167 7.78076 14.1972 7.25085 13.8065 6.86015C13.4158 6.46945 12.8859 6.24996 12.3333 6.24996ZM12.3333 13.5416C15.1146 13.5416 20.6667 14.927 20.6667 17.7083V20.8333H4V17.7083C4 14.927 9.55208 13.5416 12.3333 13.5416ZM12.3333 15.5208C9.23958 15.5208 5.97917 17.0416 5.97917 17.7083V18.8541H18.6875V17.7083C18.6875 17.0416 15.4271 15.5208 12.3333 15.5208Z" fill="#8F80D8"/>
</svg>
