<svg width="62" height="48" viewBox="0 0 62 48" fill="none" xmlns="http://www.w3.org/2000/svg">
<g opacity="0.5">
<path d="M40 23.5C40.0034 24.8199 39.695 26.1219 39.1 27.3C38.3944 28.7118 37.3097 29.8992 35.9674 30.7293C34.6251 31.5594 33.0782 31.9994 31.5 32C30.1801 32.0034 28.8781 31.6951 27.7 31.1L22 33L23.9 27.3C23.3049 26.1219 22.9966 24.8199 23 23.5C23.0006 21.9218 23.4406 20.3749 24.2707 19.0326C25.1008 17.6903 26.2882 16.6056 27.7 15.9C28.8781 15.305 30.1801 14.9966 31.5 15H32C34.0843 15.115 36.053 15.9948 37.5291 17.4709C39.0052 18.947 39.885 20.9157 40 23V23.5Z" stroke="#2000B1" stroke-width="2" stroke-linecap="round" stroke-linejoin="round"/>
</g>
</svg>
